<svg width="93" height="19" viewBox="0 0 93 19" fill="none" xmlns="http://www.w3.org/2000/svg">
    <path d="M9.248 17.448C7.824 17.976 6.496 18.24 5.264 18.24C3.872 18.24 2.744 17.872 1.88 17.136C1.016 16.4 0.584 15.224 0.584 13.608V5.904C0.584 4.688 0.752 3.768 1.088 3.144C1.44 2.52 1.968 1.992 2.672 1.56C3.376 1.16 4.24 0.959999 5.264 0.959999C6.512 0.959999 7.64 1.224 8.648 1.752L7.904 4.152C7.168 3.88 6.36 3.744 5.48 3.744C4.808 3.744 4.264 3.928 3.848 4.296C3.432 4.664 3.224 5.128 3.224 5.688V13.56C3.224 14.904 3.976 15.576 5.48 15.576C5.96 15.576 6.44 15.528 6.92 15.432C7.4 15.32 8.04 15.16 8.84 14.952L9.248 17.448ZM21.4085 9.12L18.6005 18H16.5845L13.8245 9.144V18H11.1845V1.2H13.8245L17.5925 12.312L21.4085 1.2H24.0485V18H21.4085V9.12ZM29.6966 13.32C29.7766 14.024 30.0646 14.592 30.5606 15.024C31.0566 15.456 31.7046 15.672 32.5046 15.672C33.1766 15.672 33.7206 15.56 34.1366 15.336C34.5686 15.112 34.8806 14.84 35.0726 14.52C35.2646 14.2 35.3606 13.888 35.3606 13.584C35.3606 12.88 35.1846 12.296 34.8326 11.832C34.4966 11.352 34.0726 10.976 33.5606 10.704C33.0646 10.416 32.3846 10.088 31.5206 9.72C30.5766 9.32 29.8246 8.96 29.2646 8.64C28.7206 8.304 28.2486 7.856 27.8486 7.296C27.4646 6.72 27.2726 5.992 27.2726 5.112C27.2726 4.408 27.4726 3.744 27.8726 3.12C28.2726 2.48 28.8806 1.96 29.6966 1.56C30.5126 1.16 31.5126 0.959999 32.6966 0.959999C33.4806 0.959999 34.1286 1.016 34.6406 1.128C35.1526 1.24 35.6726 1.424 36.2006 1.68L35.3606 4.176C34.7846 3.984 34.3126 3.848 33.9446 3.768C33.5926 3.688 33.1846 3.648 32.7206 3.648C31.8086 3.648 31.1366 3.808 30.7046 4.128C30.2726 4.448 30.0806 4.856 30.1286 5.352C30.1766 5.752 30.4166 6.096 30.8486 6.384C31.2966 6.672 31.9846 7.024 32.9126 7.44C34.0006 7.92 34.9046 8.376 35.6246 8.808C36.3446 9.24 36.9606 9.832 37.4726 10.584C38.0006 11.336 38.2646 12.256 38.2646 13.344C38.2646 14.768 37.7926 15.944 36.8486 16.872C35.9046 17.8 34.4646 18.264 32.5286 18.264C31.3446 18.264 30.3286 18.048 29.4806 17.616C28.6486 17.168 28.0086 16.6 27.5606 15.912C27.1286 15.208 26.8966 14.48 26.8646 13.728L29.6966 13.32ZM44.1337 18.312C41.7017 18.264 40.4857 17.104 40.4857 14.832V1.2H43.1737V5.976H45.4537L44.8777 8.448H43.1737V14.832C43.1737 15.376 43.3257 15.744 43.6297 15.936C43.9337 16.112 44.3657 16.2 44.9257 16.2L44.1337 18.312ZM47.4796 5.976H49.9276L50.1196 6.072C50.7756 5.848 51.3916 5.736 51.9676 5.736C52.3676 5.736 52.9516 5.816 53.7196 5.976L54.1996 6.072L53.5756 8.64C53.1276 8.416 52.6876 8.304 52.2556 8.304C51.6636 8.304 51.1596 8.488 50.7436 8.856C50.3276 9.208 50.1196 9.68 50.1196 10.272V18H47.4796V5.976ZM57.4884 14.424C57.4884 14.872 57.6084 15.224 57.8484 15.48C58.1044 15.72 58.4724 15.84 58.9524 15.84C59.6884 15.84 60.6724 15.52 61.9044 14.88L62.8644 17.16C62.2884 17.528 61.6324 17.808 60.8964 18C60.1604 18.192 59.4244 18.288 58.6884 18.288C57.5044 18.288 56.5604 18 55.8564 17.424C55.1684 16.832 54.8244 15.952 54.8244 14.784V9.864C54.8244 8.568 55.2244 7.56 56.0244 6.84C56.8404 6.12 57.9124 5.76 59.2404 5.76C60.5684 5.76 61.6004 6.12 62.3364 6.84C63.0884 7.544 63.4644 8.528 63.4644 9.792V13.44L57.4884 13.752V14.424ZM60.8004 9.84C60.8004 9.36 60.6484 8.992 60.3444 8.736C60.0404 8.48 59.6644 8.352 59.2164 8.352C58.6084 8.352 58.1684 8.512 57.8964 8.832C57.6244 9.152 57.4884 9.504 57.4884 9.888V11.328L60.8004 11.112V9.84ZM74.5186 18C72.7906 18.176 71.5426 18.264 70.7746 18.264C69.0946 18.264 67.7586 17.952 66.7666 17.328C65.7746 16.704 65.2786 15.576 65.2786 13.944V11.952C65.2786 10.368 65.8306 9.304 66.9346 8.76C67.4626 8.504 68.0626 8.376 68.7346 8.376C69.3266 8.376 69.9106 8.456 70.4866 8.616C71.0626 8.776 71.5266 8.952 71.8786 9.144C71.8786 8.552 71.6386 8.152 71.1586 7.944C70.6786 7.72 70.0626 7.608 69.3106 7.608L69.5266 5.784C71.0626 5.784 72.1906 6.032 72.9106 6.528C73.6466 7.008 74.0946 7.584 74.2546 8.256C74.4306 8.928 74.5186 9.792 74.5186 10.848V18ZM71.8786 11.952C71.5906 11.744 71.1826 11.552 70.6546 11.376C70.1426 11.184 69.6706 11.088 69.2386 11.088C68.8546 11.088 68.5426 11.184 68.3026 11.376C68.0626 11.568 67.9426 11.872 67.9426 12.288V13.608C67.9426 15.064 68.7986 15.792 70.5106 15.792C71.0066 15.792 71.4626 15.752 71.8786 15.672V11.952ZM89.5908 10.704C89.5908 9.84 89.4708 9.216 89.2308 8.832C89.0068 8.448 88.6388 8.256 88.1268 8.256C87.7588 8.256 87.2628 8.368 86.6388 8.592L86.2308 8.76C86.2628 8.856 86.2868 8.968 86.3028 9.096C86.3188 9.224 86.3268 9.344 86.3268 9.456V18H83.6868V10.776C83.6868 9.976 83.5028 9.36 83.1348 8.928C82.7668 8.496 82.2708 8.28 81.6468 8.28C81.0868 8.28 80.5028 8.456 79.8948 8.808V18H77.2548V5.976H79.5828L79.8948 6.144C80.4228 5.904 81.0228 5.784 81.6948 5.784C82.2388 5.784 82.7668 5.88 83.2788 6.072C83.7908 6.248 84.2388 6.536 84.6228 6.936C84.8468 6.808 85.1828 6.632 85.6308 6.408C86.5748 5.976 87.4868 5.76 88.3668 5.76C89.5028 5.76 90.4308 6.112 91.1508 6.816C91.8708 7.504 92.2308 8.464 92.2308 9.696V18H89.5908V10.704Z" fill="#5499C7"/>
</svg>
